<?xml version="1.0" encoding="utf-8"?>
<!-- Generator: Adobe Illustrator 18.1.0, SVG Export Plug-In . SVG Version: 6.00 Build 0)  -->
<svg version="1.1" id="Слой_1" xmlns="http://www.w3.org/2000/svg" xmlns:xlink="http://www.w3.org/1999/xlink" x="0px" y="0px"
	 viewBox="0 0 56.7 22.1" enable-background="new 0 0 56.7 22.1" xml:space="preserve">
<path fill="#FFFFFF" d="M29.4,15.6l4.4,6h4.9L32,12.1L29.4,15.6z M32.6,0.4l-3.1,4.4L32,8.3l1.9-2.6l3.8-5.2H32.6z"/>
<polygon fill="#FFFFFF" points="0,0.4 8.9,21.8 13,21.8 19.6,6 16.7,1.8 11,15.7 4.8,0.4 "/>
<path fill="#FFFFFF" d="M56.7,11.3h-10l2.7,3.7h2.9v1.6c-1,0.9-2.4,1.4-4.3,1.4c-1.9,0-3.6-0.6-4.9-1.9c-1.3-1.2-2-2.9-2-5
	c0-2.1,0.7-3.8,2-5.1c1.4-1.3,3.1-1.9,5.3-1.9c1.3,0,2.6,0.3,3.9,0.8V0.6C51.1,0.2,49.7,0,48.2,0c-3.3,0-6.1,1-8.2,3.1
	c-2.2,2.1-3.2,4.7-3.2,7.9c0,3.2,1.1,5.9,3.2,7.9c2.2,2.1,4.9,3.1,8.1,3.1c1.8,0,3.5-0.3,5-1c1.5-0.6,2.8-1.5,3.6-2.4V15h0V11.3z"/>
<polygon fill="#A0C751" points="18.6,0.4 25.6,10.2 17.3,21.7 22.3,21.7 30.6,10.2 28.1,6.8 28.1,6.8 27.2,5.4 23.6,0.4 "/>
</svg>
